<?xml version="1.0" encoding="UTF-8"?>
<svg version="1.1" xmlns="http://www.w3.org/2000/svg" width="372" height="333">
<path d="M0 0 C1.74023438 0.14888672 1.74023438 0.14888672 3.515625 0.30078125 C6.30910491 0.63478428 8.9981232 1.11765216 11.75 1.6875 C11.75238835 2.66302197 11.75477671 3.63854393 11.75723743 4.64362717 C11.81598893 28.36216374 11.89184469 52.08059838 11.98571491 75.79902267 C12.0307121 87.26900057 12.07011769 98.73894715 12.09643555 110.20898438 C12.11938388 120.20434347 12.15274636 130.19960376 12.19870156 140.19488454 C12.22267652 145.48905618 12.24137726 150.78312971 12.24761391 156.07735443 C12.25364546 161.05794929 12.27357517 166.03829298 12.30427551 171.01879501 C12.31308678 172.84896224 12.31677196 174.67916224 12.31500816 176.50934982 C12.31336253 179.00430822 12.32999322 181.49849444 12.35127258 183.99334717 C12.34400122 185.08479038 12.34400122 185.08479038 12.33658296 186.19828296 C12.40132899 190.78426166 12.82827388 191.79186517 15.75 195.6875 C16.245 100.6475 16.245 100.6475 16.75 3.6875 C21.80078908 2.67734218 25.13569111 3.10779053 30 4.25 C30.79067871 4.43272461 31.58135742 4.61544922 32.39599609 4.80371094 C59.0510015 11.21702503 81.59250036 24.30090882 101.75 42.6875 C102.50925781 43.37457031 103.26851563 44.06164062 104.05078125 44.76953125 C124.90825288 64.62383792 139.03967564 93.66531223 144.75 121.6875 C144.95496094 122.63238281 145.15992188 123.57726562 145.37109375 124.55078125 C152.36836864 163.30120702 142.41285513 203.7933106 120.25 235.9375 C105.63665193 256.59094008 86.57881382 272.92032197 64 284.3125 C63.3203418 284.65555176 62.64068359 284.99860352 61.94042969 285.35205078 C59.02574326 286.77094557 57.03334115 287.6875 53.75 287.6875 C53.65099865 282.91868124 53.57847072 278.1504627 53.53027344 273.38085938 C53.51017856 271.75900857 53.48289746 270.13723003 53.44824219 268.515625 C53.3996273 266.1821102 53.37701111 263.84955443 53.359375 261.515625 C53.33872986 260.79256165 53.31808472 260.06949829 53.29681396 259.32452393 C53.29530233 255.9202178 53.45411423 254.06720688 55.57617188 251.34399414 C58.50243067 249.11413499 61.47293685 246.96458473 64.5 244.875 C73.84609902 238.92543463 73.84609902 238.92543463 80.75 230.6875 C81.41 230.6875 82.07 230.6875 82.75 230.6875 C82.75 230.0275 82.75 229.3675 82.75 228.6875 C83.41 228.6875 84.07 228.6875 84.75 228.6875 C84.75 228.0275 84.75 227.3675 84.75 226.6875 C85.41 226.6875 86.07 226.6875 86.75 226.6875 C87.183125 225.82125 87.183125 225.82125 87.625 224.9375 C87.99625 224.195 88.3675 223.4525 88.75 222.6875 C89.08 221.965625 89.41 221.24375 89.75 220.5 C90.75 218.6875 90.75 218.6875 92.75 217.6875 C93.08 216.6975 93.41 215.7075 93.75 214.6875 C94.41 214.6875 95.07 214.6875 95.75 214.6875 C96.02457031 213.9553125 96.29914063 213.223125 96.58203125 212.46875 C97.68210442 209.84917777 98.96371888 207.61015389 100.4375 205.1875 C103.47843791 199.68984379 105.55894298 194.01021848 107.5625 188.0625 C107.86438232 187.18013672 108.16626465 186.29777344 108.47729492 185.38867188 C110.31069115 179.77903452 111.20513595 174.55797072 111.75 168.6875 C112.08 168.3575 112.41 168.0275 112.75 167.6875 C112.75 166.615 112.75 165.5425 112.75 164.4375 C112.75 160.6875 112.75 160.6875 113.2421875 158.29296875 C114.50417737 151.81798993 113.94831783 145.12845833 112.75 138.6875 C112.770625 137.6975 112.79125 136.7075 112.8125 135.6875 C112.89952806 132.61099402 112.89952806 132.61099402 111.6875 129.5625 C110.73383488 126.63792695 110.66944013 125.49695566 111.75 122.6875 C111.09 122.6875 110.43 122.6875 109.75 122.6875 C109.6571875 121.3571875 109.6571875 121.3571875 109.5625 120 C107.8671474 108.08409313 101.22831988 96.64838491 94.75 86.6875 C94.26273438 85.91921875 93.77546875 85.1509375 93.2734375 84.359375 C90.42930176 79.95461093 87.55985016 76.32014783 83.75 72.6875 C83.16089844 71.98238281 82.57179688 71.27726562 81.96484375 70.55078125 C77.55177613 65.29634373 72.88031073 60.98794545 67.375 56.9375 C66.78734863 56.50228027 66.19969727 56.06706055 65.59423828 55.61865234 C60.16779364 51.73926549 54.72294623 48.94547067 48.75 45.6875 C49.08 126.5375 49.41 207.3875 49.75 290.6875 C49.09 290.6875 48.43 290.6875 47.75 290.6875 C46.35639308 289.11388552 45.03297912 287.47754275 43.75 285.8125 C40.89925117 282.11846483 40.89925117 282.11846483 37.75 278.6875 C37.151875 277.78 36.55375 276.8725 35.9375 275.9375 C33.19548566 271.86365013 30.22934799 268.16684799 26.75 264.6875 C25.41666667 262.6875 24.08333333 260.6875 22.75 258.6875 C21.00567456 256.41459109 19.3190903 254.2328782 17.25 252.25 C15.75 250.6875 15.75 250.6875 14.0078125 248.0390625 C11.58410163 244.36080961 8.87148512 240.94044994 6.125 237.5 C0.98986486 231.0472973 0.98986486 231.0472973 -1.25 227.6875 C-5.10606959 228.97285653 -5.8908987 230.59220647 -8.25 233.875 C-9.05315284 234.97638117 -9.85790789 236.07659533 -10.6640625 237.17578125 C-11.0859082 237.75279785 -11.50775391 238.32981445 -11.94238281 238.92431641 C-14.11175408 241.84948432 -16.36683018 244.7056582 -18.625 247.5625 C-19.08583984 248.14668701 -19.54667969 248.73087402 -20.02148438 249.33276367 C-20.96150478 250.52392337 -21.90193564 251.71475926 -22.84277344 252.90527344 C-25.15076198 255.82829849 -27.45005966 258.75814115 -29.75 261.6875 C-32.55559975 265.26018137 -35.36281704 268.8315503 -38.17578125 272.3984375 C-42.93974818 278.44307507 -47.67138313 284.5001799 -52.25 290.6875 C-54.29843335 287.61484998 -54.49968954 287.01368668 -54.49609566 283.5545702 C-54.5020688 282.28636298 -54.5020688 282.28636298 -54.50816262 280.99253541 C-54.49942409 279.59906539 -54.49942409 279.59906539 -54.49050903 278.17744446 C-54.49221788 277.19074506 -54.49392673 276.20404567 -54.49568737 275.1874463 C-54.49899351 271.86618369 -54.48796 268.54512109 -54.47705078 265.22387695 C-54.47648691 262.84908045 -54.47680275 260.4742836 -54.47793579 258.0994873 C-54.47845143 252.31060215 -54.46976206 246.52178299 -54.45706047 240.73291294 C-54.44277618 233.99794463 -54.43977126 227.26298577 -54.43748413 220.52800443 C-54.4331053 208.51694667 -54.4197911 196.50591606 -54.40087891 184.49487305 C-54.38252497 172.82625464 -54.36836609 161.1576436 -54.35986328 149.48901367 C-54.35933783 148.76993591 -54.35881239 148.05085814 -54.35827102 147.30999015 C-54.35566097 143.70264092 -54.35313355 140.09529165 -54.35064721 136.48794234 C-54.32990885 106.55444254 -54.29452969 76.62097444 -54.25 46.6875 C-55.85024203 47.47362926 -57.44889528 48.26299316 -59.046875 49.05371094 C-59.93729492 49.49293884 -60.82771484 49.93216675 -61.74511719 50.38470459 C-86.84432605 63.43886183 -104.19137232 88.57386761 -112.9453125 114.76806641 C-122.05583042 143.85108841 -119.80342924 175.36102577 -106.25 202.6875 C-96.32728236 220.80073673 -81.21923183 241.49343436 -61.56469727 249.82592773 C-59.25 251.6875 -59.25 251.6875 -58.68237305 255.33276367 C-58.68316335 256.84056381 -58.7113423 258.34851019 -58.76171875 259.85546875 C-58.76879349 260.65028152 -58.77586823 261.4450943 -58.78315735 262.26399231 C-58.81114126 264.80195361 -58.8738816 267.33770607 -58.9375 269.875 C-58.96257795 271.59567125 -58.98539201 273.3163771 -59.00585938 275.03710938 C-59.06098033 279.25475697 -59.14727588 283.47075407 -59.25 287.6875 C-63.46255852 286.57938748 -67.1644378 285.41419042 -70.9140625 283.19140625 C-71.72617188 282.71509766 -72.53828125 282.23878906 -73.375 281.74804688 C-74.2 281.25369141 -75.025 280.75933594 -75.875 280.25 C-77.12410156 279.51426758 -77.12410156 279.51426758 -78.3984375 278.76367188 C-79.99581658 277.82126909 -81.59060947 276.87446437 -83.18237305 275.92260742 C-84.82117683 274.94365969 -86.46951665 273.9806781 -88.12109375 273.0234375 C-90.17061814 271.73731394 -91.89540525 270.37019118 -93.6875 268.75 C-95.84111483 266.84756271 -97.79272425 265.34829735 -100.25 263.8125 C-103.62432897 261.42235031 -105.99936597 258.74860421 -108.63671875 255.58984375 C-110.20232106 253.6745337 -110.20232106 253.6745337 -111.95703125 252.06640625 C-113.25 250.6875 -113.25 250.6875 -113.25 248.6875 C-114.24 248.3575 -115.23 248.0275 -116.25 247.6875 C-119.41935269 244.27435094 -121.73668218 240.96084887 -123.95703125 236.85546875 C-125.35035731 234.51922716 -126.90337171 232.32547065 -128.48730469 230.11547852 C-133.32866576 223.3468303 -138.23405317 216.27520758 -139.75 207.9375 C-139.915 207.195 -140.08 206.4525 -140.25 205.6875 C-140.91 205.3575 -141.57 205.0275 -142.25 204.6875 C-144.34789884 198.88565537 -145.56993504 192.80808468 -146.25 186.6875 C-146.91 186.6875 -147.57 186.6875 -148.25 186.6875 C-148.31058594 186.07261719 -148.37117188 185.45773438 -148.43359375 184.82421875 C-148.51738281 184.01597656 -148.60117188 183.20773438 -148.6875 182.375 C-148.76871094 181.57449219 -148.84992188 180.77398437 -148.93359375 179.94921875 C-149.20265693 177.52662821 -149.20265693 177.52662821 -150.25 174.6875 C-150.60545713 172.02157149 -150.93637863 169.35818199 -151.25 166.6875 C-151.70974811 163.18192066 -152.13240857 160.0402743 -153.25 156.6875 C-152.94208308 155.015951 -152.60613097 153.34944453 -152.25 151.6875 C-152.05237477 148.04376004 -152.05237477 148.04376004 -153.25 144.6875 C-152.59 144.6875 -151.93 144.6875 -151.25 144.6875 C-151.20101562 143.77871094 -151.15203125 142.86992187 -151.1015625 141.93359375 C-150.89990474 138.5436573 -150.66821696 135.15920112 -150.40771484 131.7734375 C-150.26542834 129.89155536 -150.14136862 128.00831663 -150.01953125 126.125 C-148.61886992 111.36038179 -142.66089161 97.08490813 -136.2578125 83.80859375 C-135.14777747 81.47235724 -134.18992026 79.09657489 -133.25 76.6875 C-132.59 76.6875 -131.93 76.6875 -131.25 76.6875 C-130.17474806 74.03521188 -129.15543849 71.40381546 -128.25 68.6875 C-127.59 68.6875 -126.93 68.6875 -126.25 68.6875 C-125.59 66.7075 -124.93 64.7275 -124.25 62.6875 C-123.59 62.6875 -122.93 62.6875 -122.25 62.6875 C-122.1675 62.11 -122.085 61.5325 -122 60.9375 C-121.0424861 58.0649583 -119.43571625 56.73660899 -117.25 54.6875 C-116.755 53.6975 -116.755 53.6975 -116.25 52.6875 C-115.59 52.6875 -114.93 52.6875 -114.25 52.6875 C-114.00121094 52.11386719 -113.75242188 51.54023437 -113.49609375 50.94921875 C-105.42834267 36.30587118 -85.47241925 25.01431309 -71.0625 17.5625 C-70.05364746 17.04042969 -69.04479492 16.51835938 -68.00537109 15.98046875 C-60.24564665 12.04295719 -52.68699027 8.9077606 -44.25 6.6875 C-43.53021973 6.49720215 -42.81043945 6.3069043 -42.06884766 6.11083984 C-35.03482727 4.27802119 -28.58375516 2.6875 -21.25 2.6875 C-20.92 66.3775 -20.59 130.0675 -20.25 195.6875 C-16.98124556 191.32916074 -16.81708022 189.12567461 -16.85127258 183.99334717 C-16.84462576 183.21405452 -16.83797893 182.43476187 -16.83113068 181.6318543 C-16.8124659 179.01843448 -16.81510827 176.40547109 -16.81762695 173.79199219 C-16.80861191 171.9194982 -16.79828533 170.04701014 -16.78674316 168.17453003 C-16.75911678 163.08813676 -16.74988099 158.00185528 -16.74388909 152.91539669 C-16.7345201 147.60088083 -16.70831793 142.28644897 -16.68388367 136.97198486 C-16.64017436 126.90691678 -16.61165461 116.84186496 -16.58856028 106.77673078 C-16.56153236 95.31852485 -16.51761937 83.86040323 -16.47227156 72.40225744 C-16.37936181 48.83071731 -16.30771006 25.25915073 -16.25 1.6875 C-14.82962782 1.34942574 -13.40778101 1.01754352 -11.98535156 0.68823242 C-11.1937262 0.50274338 -10.40210083 0.31725433 -9.58648682 0.12614441 C-6.31248097 -0.48850676 -3.30637396 -0.30765587 0 0 Z " fill="#302477" transform="translate(181.25,28.3125)"/>
<path d="M0 0 C1.82724609 0.16628906 1.82724609 0.16628906 3.69140625 0.3359375 C4.59761719 0.43132813 5.50382812 0.52671875 6.4375 0.625 C6.4375 0.955 6.4375 1.285 6.4375 1.625 C-0.8225 1.955 -8.0825 2.285 -15.5625 2.625 C-15.2325 65.325 -14.9025 128.025 -14.5625 192.625 C-15.5525 192.955 -16.5425 193.285 -17.5625 193.625 C-17.8925 194.45 -18.2225 195.275 -18.5625 196.125 C-18.8925 196.95 -19.2225 197.775 -19.5625 198.625 C-20.5525 198.955 -21.5425 199.285 -22.5625 199.625 C-22.5625 135.275 -22.5625 70.925 -22.5625 4.625 C-30.08011809 4.73332435 -30.08011809 4.73332435 -32.5625 7.625 C-35.0375 6.635 -35.0375 6.635 -37.5625 5.625 C-37.5625 5.295 -37.5625 4.965 -37.5625 4.625 C-36.02248293 4.28412666 -34.48037594 3.95269047 -32.9375 3.625 C-31.64972656 3.3465625 -31.64972656 3.3465625 -30.3359375 3.0625 C-27.5625 2.625 -27.5625 2.625 -21.5625 2.625 C-21.2325 66.315 -20.9025 130.005 -20.5625 195.625 C-17.29374556 191.26666074 -17.12958022 189.06317461 -17.16377258 183.93084717 C-17.15712576 183.15155452 -17.15047893 182.37226187 -17.14363068 181.5693543 C-17.1249659 178.95593448 -17.12760827 176.34297109 -17.13012695 173.72949219 C-17.12111191 171.8569982 -17.11078533 169.98451014 -17.09924316 168.11203003 C-17.07161678 163.02563676 -17.06238099 157.93935528 -17.05638909 152.85289669 C-17.0470201 147.53838083 -17.02081793 142.22394897 -16.99638367 136.90948486 C-16.95267436 126.84441678 -16.92415461 116.77936496 -16.90106028 106.71423078 C-16.87403236 95.25602485 -16.83011937 83.79790323 -16.78477156 72.33975744 C-16.69186181 48.76821731 -16.62021006 25.19665073 -16.5625 1.625 C-15.14590644 1.28572996 -13.72768997 0.95323234 -12.30883789 0.62353516 C-11.51925186 0.43763824 -10.72966583 0.25174133 -9.91615295 0.06021118 C-6.53493023 -0.56500671 -3.40949991 -0.33101941 0 0 Z " fill="#222364" transform="translate(181.5625,28.375)"/>
<path d="M0 0 C0.66 0 1.32 0 2 0 C2 76.89 2 153.78 2 233 C2.66 233.33 3.32 233.66 4 234 C3.34 234 2.68 234 2 234 C2.33 234.99 2.66 235.98 3 237 C3.23188622 239.72331488 3.13093368 242.25039269 3 245 C2.01 245.99 2.01 245.99 1 247 C0.03638242 241.35250873 -0.1387807 235.9033371 -0.12025452 230.18096924 C-0.12110894 229.20930305 -0.12196337 228.23763687 -0.12284368 227.23652625 C-0.124487 223.99002201 -0.11899587 220.74356977 -0.11352539 217.49707031 C-0.11324324 215.16595969 -0.1134018 212.83484898 -0.1139679 210.5037384 C-0.11425483 204.17976522 -0.10837442 197.85581101 -0.10139394 191.53184223 C-0.09577479 185.58792229 -0.09477036 179.64400308 -0.09374207 173.70008084 C-0.09155537 161.92651517 -0.08490628 150.15295644 -0.07543945 138.37939453 C-0.06626109 126.95263707 -0.05918175 115.5258815 -0.05493164 104.09912109 C-0.05466892 103.39473842 -0.05440619 102.69035574 -0.05413551 101.96462813 C-0.0528303 98.43037108 -0.05156656 94.89611401 -0.05032361 91.36185694 C-0.04068524 64.09377996 -0.02513232 36.82570854 -0.0046621 9.55763745 C-0.0040454 8.73041645 -0.0034287 7.90319544 -0.00279331 7.05090714 C-0.00225124 6.33589106 -0.00170917 5.62087498 -0.00115067 4.88419175 C-0.00015642 3.25612809 0 1.62806396 0 0 Z " fill="#1B1E64" transform="translate(127,72)"/>
<path d="M0 0 C0.99 0.33 1.98 0.66 3 1 C2.34 1 1.68 1 1 1 C1.33 81.85 1.66 162.7 2 246 C1.34 246 0.68 246 0 246 C-1.625 243.5 -1.625 243.5 -3 241 C-2.34 240.67 -1.68 240.34 -1 240 C-0.67 160.8 -0.34 81.6 0 0 Z " fill="#2C296F" transform="translate(229,73)"/>
<path d="M0 0 C0.66 0.33 1.32 0.66 2 1 C0.92027262 2.4194169 -0.16395863 3.8354083 -1.25 5.25 C-2.15492187 6.43335937 -2.15492187 6.43335937 -3.078125 7.640625 C-5 10 -5 10 -7.171875 12.109375 C-9.22775356 13.96306038 -9.22775356 13.96306038 -10 17 C-11.65 17 -13.3 17 -15 17 C-14.34 15.68 -13.68 14.36 -13 13 C-12.34 13 -11.68 13 -11 13 C-10.76539062 12.43796875 -10.53078125 11.8759375 -10.2890625 11.296875 C-8.69337 8.45364109 -6.71075457 6.51901873 -4.375 4.25 C-3.55773437 3.45078125 -2.74046875 2.6515625 -1.8984375 1.828125 C-0.95871094 0.92320313 -0.95871094 0.92320313 0 0 Z " fill="#28256A" transform="translate(78,68)"/>
<path d="M0 0 C0.66 0 1.32 0 2 0 C2.4125 1.2375 2.825 2.475 3.25 3.75 C4.58057976 7.35975466 6.16985289 9.36503545 9 12 C9 12.99 9 13.98 9 15 C9.66 15.33 10.32 15.66 11 16 C10.01 16 9.02 16 8 16 C3.82450659 11.31452266 1.29545724 6.08864903 0 0 Z M7 7 C7.99 7.495 7.99 7.495 9 8 C8.01 8.495 8.01 8.495 7 9 C7 8.34 7 7.68 7 7 Z " fill="#252367" transform="translate(45,243)"/>
<path d="M0 0 C0.66 0.33 1.32 0.66 2 1 C-0.64 3.97 -3.28 6.94 -6 10 C-7.24546405 7.50907189 -6.7767578 6.58919267 -6 4 C-5.34 4 -4.68 4 -4 4 C-3.67 3.34 -3.34 2.68 -3 2 C-2.01 1.34 -1.02 0.68 0 0 Z " fill="#242168" transform="translate(94,96)"/>
<path d="M0 0 C0.33 1.32 0.66 2.64 1 4 C1.66 4.33 2.32 4.66 3 5 C2.34 5 1.68 5 1 5 C0.95101562 5.62648437 0.90203125 6.25296875 0.8515625 6.8984375 C0.77679688 7.71570313 0.70203125 8.53296875 0.625 9.375 C0.55539063 10.18710938 0.48578125 10.99921875 0.4140625 11.8359375 C0 14 0 14 -2 16 C-1.34 10.72 -0.68 5.44 0 0 Z " fill="#212164" transform="translate(33,146)"/>
<path d="M0 0 C2 4 2 4 1.625 6.25 C1.41875 6.8275 1.2125 7.405 1 8 C0.34 8 -0.32 8 -1 8 C-1.33 9.65 -1.66 11.3 -2 13 C-2.66 12.34 -3.32 11.68 -4 11 C-2.68 7.37 -1.36 3.74 0 0 Z " fill="#242266" transform="translate(37,132)"/>
<path d="M0 0 C4.9723422 1.49170266 9.41845739 3.60457417 14 6 C13.34 6.66 12.68 7.32 12 8 C10.18387512 7.04855402 8.37218919 6.08863067 6.5625 5.125 C5.55316406 4.59132813 4.54382813 4.05765625 3.50390625 3.5078125 C1 2 1 2 0 0 Z " fill="#252467" transform="translate(236,41)"/>
<path d="M0 0 C0.99 0.33 1.98 0.66 3 1 C-0.75 5.875 -0.75 5.875 -3 7 C-3.66 6.34 -4.32 5.68 -5 5 C-3.35 3.35 -1.7 1.7 0 0 Z " fill="#29246C" transform="translate(85,62)"/>
<path d="M0 0 C-2.66503405 1.77668937 -4.01684573 2.32638452 -7 3 C-7.99 3.495 -7.99 3.495 -9 4 C-11.125 3.0625 -11.125 3.0625 -13 2 C-11.39935157 1.46845258 -9.79431126 0.95011647 -8.1875 0.4375 C-7.29417969 0.14746094 -6.40085938 -0.14257812 -5.48046875 -0.44140625 C-3 -1 -3 -1 0 0 Z " fill="#262368" transform="translate(144,35)"/>
<path d="M0 0 C0.99 0.495 0.99 0.495 2 1 C2 1.66 2 2.32 2 3 C2.66 3.33 3.32 3.66 4 4 C4.75 6.4375 4.75 6.4375 5 9 C4.34 9.66 3.68 10.32 3 11 C2.49632243 9.54293274 1.99717444 8.08429904 1.5 6.625 C1.2215625 5.81289062 0.943125 5.00078125 0.65625 4.1640625 C0 2 0 2 0 0 Z " fill="#252267" transform="translate(288,136)"/>
<path d="M0 0 C2 2 2 2 2.1953125 4.3828125 C2.17210937 5.28773438 2.14890625 6.19265625 2.125 7.125 C2.10695312 8.03507813 2.08890625 8.94515625 2.0703125 9.8828125 C2.03550781 10.93082031 2.03550781 10.93082031 2 12 C1.34 11.67 0.68 11.34 0 11 C0.020625 10.0925 0.04125 9.185 0.0625 8.25 C0.01073123 5.5580237 -0.33569365 3.56232449 -1 1 C-0.67 0.67 -0.34 0.34 0 0 Z " fill="#1F1F62" transform="translate(31,194)"/>
<path d="M0 0 C0.66 0.33 1.32 0.66 2 1 C0.06745228 3.0245738 -1.63158688 4.42105792 -4 6 C-4.99 5.67 -5.98 5.34 -7 5 C-4.69 3.35 -2.38 1.7 0 0 Z " fill="#252368" transform="translate(99,52)"/>
<path d="" fill="#24275B" transform="translate(0,0)"/>
<path d="" fill="#24275B" transform="translate(0,0)"/>
<path d="" fill="#24275B" transform="translate(0,0)"/>
<path d="" fill="#24275B" transform="translate(0,0)"/>
<path d="" fill="#24275B" transform="translate(0,0)"/>
<path d="" fill="#24275B" transform="translate(0,0)"/>
<path d="" fill="#24275B" transform="translate(0,0)"/>
<path d="" fill="#24275B" transform="translate(0,0)"/>
<path d="" fill="#24275B" transform="translate(0,0)"/>
<path d="" fill="#24275B" transform="translate(0,0)"/>
<path d="" fill="#24275B" transform="translate(0,0)"/>
<path d="" fill="#24275B" transform="translate(0,0)"/>
<path d="" fill="#24275B" transform="translate(0,0)"/>
<path d="" fill="#24275B" transform="translate(0,0)"/>
<path d="" fill="#24275B" transform="translate(0,0)"/>
<path d="" fill="#24275B" transform="translate(0,0)"/>
<path d="" fill="#24275B" transform="translate(0,0)"/>
<path d="" fill="#24275B" transform="translate(0,0)"/>
<path d="" fill="#24275B" transform="translate(0,0)"/>
<path d="" fill="#24275B" transform="translate(0,0)"/>
<path d="" fill="#24275B" transform="translate(0,0)"/>
<path d="" fill="#24275B" transform="translate(0,0)"/>
<path d="" fill="#24275B" transform="translate(0,0)"/>
<path d="" fill="#24275B" transform="translate(0,0)"/>
<path d="" fill="#24275B" transform="translate(0,0)"/>
<path d="" fill="#24275B" transform="translate(0,0)"/>
<path d="" fill="#24275B" transform="translate(0,0)"/>
<path d="" fill="#24275B" transform="translate(0,0)"/>
<path d="" fill="#24275B" transform="translate(0,0)"/>
<path d="" fill="#24275B" transform="translate(0,0)"/>
</svg>
